<svg width="1200" height="430" viewBox="0 0 1200 430" xmlns="http://www.w3.org/2000/svg">
  <defs>
    <style>text { font-family: -apple-system, BlinkMacSystemFont, "Segoe UI", Roboto, sans-serif; }</style>
  </defs>
  <rect width="1200" height="430" fill="#F8FAFC"/>
  <!-- Title -->
  <text x="600" y="36" text-anchor="middle" font-size="19" font-weight="700" fill="#0F172A">AI-Native TPM Skills — PMI Process Group Coverage</text>
  <text x="600" y="58" text-anchor="middle" font-size="12" fill="#64748B">25 Claude Code skills · Built at Intuit · Full program management lifecycle</text>

  <rect x="20" y="82" width="224" height="36" rx="6" fill="#2563EB"/>
  <text x="132" y="105" text-anchor="middle" font-size="11.5" font-weight="700" fill="white" letter-spacing="0.5">① INITIATING</text>
  <rect x="20" y="118" width="224" height="222" rx="6" fill="white" stroke="#E2E8F0" stroke-width="1"/>
  <circle cx="34" cy="138" r="3" fill="#2563EB"/>
  <text x="45" y="142" font-size="11.5" fill="#1E3A8A" font-weight="500">kickoff</text>
  <circle cx="34" cy="163" r="3" fill="#2563EB"/>
  <text x="45" y="167" font-size="11.5" fill="#1E3A8A" font-weight="500">stakeholder-map</text>
  <circle cx="34" cy="188" r="3" fill="#2563EB"/>
  <text x="45" y="192" font-size="11.5" fill="#1E3A8A" font-weight="500">business-case</text>
  <circle cx="34" cy="213" r="3" fill="#2563EB"/>
  <text x="45" y="217" font-size="11.5" fill="#1E3A8A" font-weight="500">capacity-plan</text>
  <polygon points="245,96 253,100 245,104" fill="#2563EB" opacity="0.7"/>

  <rect x="254" y="82" width="224" height="36" rx="6" fill="#7C3AED"/>
  <text x="366" y="105" text-anchor="middle" font-size="11.5" font-weight="700" fill="white" letter-spacing="0.5">② PLANNING</text>
  <rect x="254" y="118" width="224" height="222" rx="6" fill="white" stroke="#E2E8F0" stroke-width="1"/>
  <circle cx="268" cy="138" r="3" fill="#7C3AED"/>
  <text x="279" y="142" font-size="11.5" fill="#3B0764" font-weight="500">workback</text>
  <circle cx="268" cy="163" r="3" fill="#7C3AED"/>
  <text x="279" y="167" font-size="11.5" fill="#3B0764" font-weight="500">raid</text>
  <circle cx="268" cy="188" r="3" fill="#7C3AED"/>
  <text x="279" y="192" font-size="11.5" fill="#3B0764" font-weight="500">dependency-scan</text>
  <circle cx="268" cy="213" r="3" fill="#7C3AED"/>
  <text x="279" y="217" font-size="11.5" fill="#3B0764" font-weight="500">premortem</text>
  <circle cx="268" cy="238" r="3" fill="#7C3AED"/>
  <text x="279" y="242" font-size="11.5" fill="#3B0764" font-weight="500">offsite-plan</text>
  <polygon points="479,96 487,100 479,104" fill="#7C3AED" opacity="0.7"/>

  <rect x="488" y="82" width="224" height="36" rx="6" fill="#059669"/>
  <text x="600" y="105" text-anchor="middle" font-size="11.5" font-weight="700" fill="white" letter-spacing="0.5">③ EXECUTING</text>
  <rect x="488" y="118" width="224" height="222" rx="6" fill="white" stroke="#E2E8F0" stroke-width="1"/>
  <circle cx="502" cy="138" r="3" fill="#059669"/>
  <text x="513" y="142" font-size="11.5" fill="#064E3B" font-weight="500">status-update</text>
  <circle cx="502" cy="163" r="3" fill="#059669"/>
  <text x="513" y="167" font-size="11.5" fill="#064E3B" font-weight="500">comms</text>
  <circle cx="502" cy="188" r="3" fill="#059669"/>
  <text x="513" y="192" font-size="11.5" fill="#064E3B" font-weight="500">decision</text>
  <circle cx="502" cy="213" r="3" fill="#059669"/>
  <text x="513" y="217" font-size="11.5" fill="#064E3B" font-weight="500">escalate</text>
  <circle cx="502" cy="238" r="3" fill="#059669"/>
  <text x="513" y="242" font-size="11.5" fill="#064E3B" font-weight="500">prd-review</text>
  <circle cx="502" cy="263" r="3" fill="#059669"/>
  <text x="513" y="267" font-size="11.5" fill="#064E3B" font-weight="500">slack-formatting</text>
  <circle cx="502" cy="288" r="3" fill="#059669"/>
  <text x="513" y="292" font-size="11.5" fill="#064E3B" font-weight="500">zoom-meeting-summary</text>
  <circle cx="502" cy="313" r="3" fill="#059669"/>
  <text x="513" y="317" font-size="11.5" fill="#064E3B" font-weight="500">multi-system-status</text>
  <polygon points="713,96 721,100 713,104" fill="#059669" opacity="0.7"/>

  <rect x="722" y="82" width="224" height="36" rx="6" fill="#D97706"/>
  <text x="834" y="105" text-anchor="middle" font-size="11.5" font-weight="700" fill="white" letter-spacing="0.5">④ MONITORING</text>
  <rect x="722" y="118" width="224" height="222" rx="6" fill="white" stroke="#E2E8F0" stroke-width="1"/>
  <circle cx="736" cy="138" r="3" fill="#D97706"/>
  <text x="747" y="142" font-size="11.5" fill="#78350F" font-weight="500">watchdog</text>
  <circle cx="736" cy="163" r="3" fill="#D97706"/>
  <text x="747" y="167" font-size="11.5" fill="#78350F" font-weight="500">roadmap-compare</text>
  <circle cx="736" cy="188" r="3" fill="#D97706"/>
  <text x="747" y="192" font-size="11.5" fill="#78350F" font-weight="500">raid (ongoing)</text>
  <circle cx="736" cy="213" r="3" fill="#D97706"/>
  <text x="747" y="217" font-size="11.5" fill="#78350F" font-weight="500">dependency-scan (live)</text>
  <polygon points="947,96 955,100 947,104" fill="#D97706" opacity="0.7"/>

  <rect x="956" y="82" width="224" height="36" rx="6" fill="#DC2626"/>
  <text x="1068" y="105" text-anchor="middle" font-size="11.5" font-weight="700" fill="white" letter-spacing="0.5">⑤ CLOSING</text>
  <rect x="956" y="118" width="224" height="222" rx="6" fill="white" stroke="#E2E8F0" stroke-width="1"/>
  <circle cx="970" cy="138" r="3" fill="#DC2626"/>
  <text x="981" y="142" font-size="11.5" fill="#7F1D1D" font-weight="500">retro</text>
  <circle cx="970" cy="163" r="3" fill="#DC2626"/>
  <text x="981" y="167" font-size="11.5" fill="#7F1D1D" font-weight="500">async-retro</text>
  <circle cx="970" cy="188" r="3" fill="#DC2626"/>
  <text x="981" y="192" font-size="11.5" fill="#7F1D1D" font-weight="500">rca</text>
  <circle cx="970" cy="213" r="3" fill="#DC2626"/>
  <text x="981" y="217" font-size="11.5" fill="#7F1D1D" font-weight="500">launch-readiness</text>

  <rect x="20" y="354" width="1160" height="38" rx="6" fill="#1E293B"/>
  <text x="600" y="367" text-anchor="middle" font-size="9.5" fill="#64748B" letter-spacing="1">CROSS-CUTTING — ALL PROCESS GROUPS</text>
  <text x="600" y="383" text-anchor="middle" font-size="11.5" fill="white" font-weight="500">program-expert (coaching &amp; altitude)   ·   tpm-rockstar (TPM craft review)</text>
  <text x="600" y="412" text-anchor="middle" font-size="10" fill="#94A3B8">adrianhills.github.io  ·  PMI Process Group framework © Project Management Institute</text>
</svg>